<svg xmlns="http://www.w3.org/2000/svg" viewBox="0 0 64 80" x="0px" y="0px"><title>World Ocean Day</title><path d="M45.3,17.3431A13.53668,13.53668,0,0,0,32,4,13.53475,13.53475,0,0,0,18.7,17.3431c-.49541,13.24614,10.29538,26.02921,13.3,29.303C34.99388,43.36153,45.79539,30.57846,45.3,17.3431ZM25.48464,29.04925a1.08319,1.08319,0,0,1-1.50772.23689c-1.36685-1.19826.97617-2.80884,1.57217-3.71546-.63038-.912-2.934-2.54011-1.56155-3.71529,1.4647-.89934,2.21085,1.59874,3.12336,2.23983,6.22264-5.13288,11.52907-.78247,13.04143.74321a1.09139,1.09139,0,0,1-.16159,1.6585,10.23694,10.23694,0,0,1-6.79536,2.99383,9.43739,9.43739,0,0,1-6.07386-2.43386A20.52472,20.52472,0,0,0,25.48464,29.04925Z"/><path d="M37.7723,25.5923c-1.99228-1.61538-5.23383-3.00459-9.05689-.02156C32.52769,28.55384,35.76924,27.18613,37.7723,25.5923Z"/><path d="M32,53.58152c-5.00772,0-8.07692,1.86305-8.07692,3.20921C23.92309,58.12616,26.99229,60,32,60s8.07692-1.87384,8.07692-3.20927C40.07693,55.44457,37.00773,53.58152,32,53.58152Z"/></svg>