<svg xmlns="http://www.w3.org/2000/svg" data-name="Layer 1" viewBox="0 0 64 80" x="0px" y="0px"><title>Location &amp;amp; Navigation TNP</title><path d="M32,2A18.855,18.855,0,0,0,13.17,20.83c0,5.76,5.6,15.27,10.63,22.67-6.51,1.59-10.63,4.95-10.63,8.78C13.17,57.73,21.44,62,32,62s18.83-4.27,18.83-9.72c0-3.83-4.12-7.19-10.63-8.78,5.03-7.42,10.63-16.95,10.63-22.67A18.855,18.855,0,0,0,32,2ZM48.83,52.28C48.83,56.46,41.12,60,32,60s-16.83-3.54-16.83-7.72c0-2.95,3.93-5.73,9.84-7.01h.01c.08.12.16.24.24.35.59.86,1.17,1.66,1.71,2.4l.25.35c2.29,3.16,3.98,5.28,4,5.3a1,1,0,0,0,.78.38.971.971,0,0,0,.78-.38c.02-.02,1.69-2.15,3.99-5.31l.38-.51,1.58-2.21c.08-.12.17-.24.25-.37C44.9,46.55,48.83,49.33,48.83,52.28ZM32,29.71a8.88,8.88,0,1,1,8.88-8.88A8.892,8.892,0,0,1,32,29.71Z"/></svg>